<svg width="24" height="24" viewBox="0 0 24 24" fill="none" xmlns="http://www.w3.org/2000/svg">
<g id="fi-rr-gamepad">
<path id="Vector" d="M15.5312 17.1489L15.5288 17.1412L15.5251 17.1339C15.314 16.7115 14.8859 16.3815 14.4398 16.3815H9.56016C9.02485 16.3815 8.58152 16.7033 8.46799 17.1515C8.02187 18.5883 7.50426 19.6437 6.91935 20.3382C6.33621 21.0307 5.69014 21.3608 4.97925 21.3608C3.64335 21.3608 2.4244 20.285 1.53356 18.491C0.645553 16.7026 0.1 14.2289 0.1 11.5023C0.1 9.23024 0.692455 7.05641 1.77965 5.07903C2.65968 3.61358 4.22138 2.63957 5.97511 2.63957H17.9253C19.679 2.63957 21.2407 3.61357 22.1207 5.07901C23.2076 7.05571 23.8008 9.23019 23.9 11.5044C23.8997 14.2302 23.3542 16.7031 22.4664 18.491C21.5756 20.285 20.3567 21.3608 19.0208 21.3608C18.3099 21.3608 17.6638 21.0307 17.0807 20.3382C16.4954 19.6432 15.9775 18.587 15.5312 17.1489ZM17.1326 16.6105L17.1326 16.6105L17.1333 16.6127C17.4836 17.6635 17.8354 18.3938 18.1402 18.8637C18.2924 19.0984 18.4347 19.2709 18.5614 19.3859C18.6838 19.4971 18.8074 19.569 18.9211 19.569C19.0708 19.569 19.2294 19.5114 19.3886 19.4116C19.5485 19.3113 19.715 19.1647 19.8826 18.9771C20.218 18.6018 20.5654 18.054 20.8796 17.3566C21.5082 15.9611 22.0088 13.9552 22.0088 11.5023C22.0088 9.59277 21.5064 7.68469 20.603 5.97831L20.6034 5.97807L20.5978 5.96963C19.9849 5.05033 18.96 4.43133 17.9254 4.43133H5.97516C4.94051 4.43133 3.9156 5.05033 3.30272 5.96963L3.30229 5.96934L3.29754 5.97831C2.39413 7.68469 1.89172 9.59277 1.89172 11.5023C1.89172 13.9552 2.39225 15.9611 3.02086 17.3566C3.335 18.054 3.6824 18.6018 4.01775 18.9771C4.18541 19.1647 4.35192 19.3113 4.51182 19.4116C4.67102 19.5114 4.82955 19.569 4.97925 19.569C5.09295 19.569 5.21657 19.4971 5.33899 19.3859C5.46572 19.2709 5.608 19.0984 5.76024 18.8637C6.06501 18.3938 6.41681 17.6635 6.76706 16.6127C7.15216 15.4574 8.30978 14.5898 9.56016 14.5898H14.3402C15.5944 14.5898 16.7482 15.361 17.1326 16.6105Z" fill="#6D21E9" stroke="white" stroke-width="0.2"/>
<path id="Vector_2" d="M7.89994 9.00001V9.10001H7.99994H8.99993C9.2772 9.10001 9.50049 9.19199 9.65421 9.34572C9.80793 9.49944 9.89991 9.72274 9.89991 10C9.89991 10.2773 9.80793 10.5006 9.65421 10.6543C9.50049 10.808 9.2772 10.9 8.99993 10.9H7.9999H7.8999V11V12C7.8999 12.2773 7.80791 12.5006 7.65419 12.6543C7.50047 12.808 7.27719 12.9 6.99991 12.9C6.72263 12.9 6.49934 12.808 6.34563 12.6543C6.19191 12.5006 6.09992 12.2773 6.09992 12V11V10.9H5.99992H4.99999C4.72271 10.9 4.49942 10.808 4.3457 10.6543C4.19199 10.5006 4.1 10.2773 4.1 9.99999C4.1 9.72272 4.19199 9.49943 4.3457 9.34571C4.49942 9.19199 4.72271 9.10001 4.99999 9.10001H5.99997H6.09997V9.00001V8.00003C6.09997 7.72275 6.19196 7.49947 6.34567 7.34575C6.49939 7.19203 6.72268 7.10005 6.99996 7.10005C7.27723 7.10005 7.50052 7.19203 7.65424 7.34575C7.80796 7.49947 7.89994 7.72275 7.89994 8.00003V9.00001Z" fill="#6D21E9" stroke="white" stroke-width="0.2"/>
<path id="Vector_3" d="M19.9 8.49997C19.9 9.27317 19.2732 9.89997 18.5 9.89997C17.7268 9.89997 17.1 9.27317 17.1 8.49997C17.1 7.72677 17.7268 7.09997 18.5 7.09997C19.2732 7.09997 19.9 7.72677 19.9 8.49997Z" fill="#6D21E9" stroke="white" stroke-width="0.2"/>
<path id="Vector_4" d="M16.9 11.5C16.9 12.2732 16.2732 12.9 15.5 12.9C14.7268 12.9 14.1 12.2732 14.1 11.5C14.1 10.7268 14.7268 10.1 15.5 10.1C16.2732 10.1 16.9 10.7268 16.9 11.5Z" fill="#6D21E9" stroke="white" stroke-width="0.2"/>
</g>
</svg>
