<svg width="32" height="32" viewBox="0 0 32 32" fill="none" xmlns="http://www.w3.org/2000/svg">
<g id="Interface / Filter">
<path id="Vector" d="M26.6673 7.46681C26.6673 6.72007 26.6668 6.34642 26.5215 6.06121C26.3937 5.81033 26.1904 5.6065 25.9396 5.47867C25.6544 5.33334 25.2802 5.33334 24.5335 5.33334H7.4668C6.72006 5.33334 6.34706 5.33334 6.06185 5.47867C5.81097 5.6065 5.60714 5.81033 5.47931 6.06121C5.33398 6.34642 5.33398 6.72007 5.33398 7.46681V8.44982C5.33398 8.77594 5.33398 8.93912 5.37082 9.09257C5.40349 9.22862 5.45749 9.35858 5.5306 9.47787C5.61303 9.61239 5.72853 9.72789 5.95898 9.95834L12.7093 16.7087C12.9399 16.9393 13.0546 17.0539 13.137 17.1885C13.2101 17.3078 13.2649 17.4382 13.2975 17.5742C13.334 17.7261 13.334 17.8874 13.334 18.2069V24.548C13.334 25.691 13.334 26.2628 13.5747 26.607C13.7849 26.9075 14.1092 27.108 14.472 27.1616C14.8875 27.223 15.3989 26.9677 16.4212 26.4565L17.4879 25.9232C17.916 25.7091 18.1295 25.6017 18.2859 25.4421C18.4242 25.3009 18.53 25.1313 18.5944 24.9445C18.6673 24.7332 18.6673 24.4933 18.6673 24.0147V18.2168C18.6673 17.8907 18.6673 17.7277 18.7042 17.5742C18.7368 17.4382 18.7908 17.3078 18.8639 17.1885C18.9458 17.0548 19.0602 16.9405 19.2877 16.7129L19.2923 16.7087L26.0426 9.95834C26.2732 9.72774 26.3879 9.61243 26.4704 9.47787C26.5435 9.35858 26.5982 9.22862 26.6309 9.09257C26.6673 8.94069 26.6673 8.77926 26.6673 8.45974V7.46681Z" stroke="#555859" stroke-width="2" stroke-linecap="round" stroke-linejoin="round"/>
</g>
</svg>
