<svg width="28" height="34" viewBox="0 0 28 34" fill="none" xmlns="http://www.w3.org/2000/svg">
<path fill-rule="evenodd" clip-rule="evenodd" d="M12.5388 30.8754C9.40762 28.3115 2.3335 21.6245 2.3335 13.5381C2.3335 10.4779 3.56266 7.5436 5.75058 5.37972C7.93851 3.21584 10.9061 2 14.0003 2C17.0945 2 20.0618 3.21566 22.2497 5.37954C24.4376 7.54342 25.6667 10.4786 25.6667 13.5388C25.6667 21.6252 18.5929 28.3118 15.4618 30.8756C15.0119 31.2439 14.7868 31.4278 14.4518 31.5221C14.1915 31.5954 13.8083 31.5954 13.548 31.5221C13.2137 31.4279 12.9869 31.2423 12.5388 30.8754ZM10.6668 12C10.6668 13.841 12.1592 15.3333 14.0002 15.3333C15.8411 15.3333 17.3335 13.841 17.3335 12C17.3335 10.1591 15.8411 8.66667 14.0002 8.66667C12.1592 8.66667 10.6668 10.1591 10.6668 12Z" fill="#E2D3FB" stroke="#6D21E9" stroke-width="3.33333" stroke-linecap="round" stroke-linejoin="round"/>
</svg>
