<svg width="88" height="46" viewBox="0 0 88 46" fill="none" xmlns="http://www.w3.org/2000/svg">
<g clip-path="url(#clip0_468_143)">
<path d="M64.1604 2.8059C64.9744 2.42432 65.7437 2.06411 66.4448 1.71204C68.2407 0.812533 69.8678 0.376007 71.4206 0.376007C74.5465 0.376007 76.7087 2.1791 78.0651 3.53548L84.6425 10.12C88.1622 13.6438 88.7239 17.2306 86.4639 21.7516C86.1129 22.4537 85.7527 23.225 85.3711 24.042C83.3136 28.4429 81.1869 32.9924 77.7059 32.9924C77.6082 32.9924 77.5116 32.9893 77.4129 32.9812C73.8209 32.7003 72.8014 28.0746 71.9019 23.9952C71.7594 23.3491 71.6231 22.7294 71.4847 22.1738C71.2425 21.2133 70.7673 20.617 69.4638 19.3105L69.2847 19.1304L69.1748 19.0205L68.8848 18.7315C67.5783 17.425 66.982 16.9498 66.0194 16.7076C65.4689 16.5692 64.8513 16.4329 64.2062 16.2914C60.1289 15.3919 55.5062 14.3723 55.2264 10.7733C54.9435 7.12232 59.6282 4.92748 64.1604 2.8059ZM57.3164 10.5891C57.5148 13.1258 63.1927 13.8747 66.573 14.7224C68.0678 15.0999 68.9774 15.8915 70.3501 17.2642C70.4458 17.3598 70.5424 17.4555 70.6391 17.5522C70.7358 17.6488 70.8314 17.7465 70.9271 17.8411C72.2997 19.2158 73.0893 20.1245 73.4658 21.6213C74.3145 25.0046 75.0613 30.6897 77.595 30.8881C77.6408 30.8911 77.6866 30.8932 77.7324 30.8932C80.4207 30.8932 82.6827 24.7798 84.6781 20.792C86.7051 16.7371 85.8371 14.1078 83.2363 11.5039C82.7377 11.0043 82.116 10.3836 81.3559 9.62243C80.5795 8.84503 79.6555 7.92008 78.5607 6.82418C77.8006 6.06306 77.1799 5.44338 76.6802 4.94274C75.0644 3.32587 73.4383 2.37853 71.4684 2.37853C70.2667 2.37853 68.9357 2.72959 67.4023 3.49987C63.3494 5.5319 57.1027 7.83868 57.3164 10.5891ZM72.5694 10.5555C72.5694 11.1175 72.1138 11.5731 71.5518 11.5731C70.9899 11.5731 70.5343 11.1175 70.5343 10.5555C70.5343 9.99354 70.9899 9.53797 71.5518 9.53797C72.1138 9.53797 72.5694 9.99354 72.5694 10.5555ZM72.5694 7.50289C72.5694 8.06486 72.1138 8.52043 71.5518 8.52043C70.9899 8.52043 70.5343 8.06486 70.5343 7.50289C70.5343 6.94091 70.9899 6.48534 71.5518 6.48534C72.1138 6.48534 72.5694 6.94091 72.5694 7.50289ZM69.5167 7.50289C69.5167 8.06486 69.0612 8.52043 68.4992 8.52043C67.9372 8.52043 67.4816 8.06486 67.4816 7.50289C67.4816 6.94091 67.9372 6.48534 68.4992 6.48534C69.0612 6.48534 69.5167 6.94091 69.5167 7.50289ZM69.5167 10.5555C69.5167 11.1175 69.0612 11.5731 68.4992 11.5731C67.9372 11.5731 67.4816 11.1175 67.4816 10.5555C67.4816 9.99354 67.9372 9.53797 68.4992 9.53797C69.0612 9.53797 69.5167 9.99354 69.5167 10.5555ZM76.5292 18.4573C76.957 18.03 76.9572 17.3366 76.5296 16.9091C76.1481 16.5275 76.1481 15.9088 76.5296 15.5272C76.9112 15.1457 77.5289 15.1457 77.9105 15.5272C78.3381 15.9549 79.0315 15.9549 79.4592 15.5272C79.8407 15.1457 80.4584 15.1457 80.84 15.5272C81.2215 15.9088 81.2215 16.5275 80.84 16.9091C80.4123 17.3367 80.4123 18.0301 80.84 18.4578C81.2215 18.8393 81.2215 19.458 80.84 19.8386C80.4584 20.2191 79.8397 20.2202 79.4592 19.8386C79.0315 19.4109 78.3381 19.4109 77.9105 19.8386L77.8881 19.861C77.5065 20.2425 76.8888 20.2425 76.5073 19.861C76.1257 19.4794 76.1257 18.8607 76.5073 18.4791L76.5292 18.4573Z" fill="url(#paint0_linear_468_143)"/>
</g>
<path d="M12.9569 33.0585C12.1406 33.0585 11.4026 32.8588 10.7427 32.4593C10.0828 32.0426 9.56178 31.4521 9.17973 30.688C8.57192 30.9659 7.93806 31.1048 7.27814 31.1048H4.95977C4.35196 31.1048 3.77888 30.9485 3.24053 30.6359C2.70218 30.3233 2.27671 29.9065 1.96412 29.3855C1.65153 28.8472 1.49524 28.2741 1.49524 27.6663V25.9992C1.49524 24.9398 1.84256 23.9586 2.5372 23.0556C3.23185 22.1352 4.09147 21.5621 5.11607 21.3364L8.4764 20.5549V18.6273H11.5502V28.1352C11.5502 28.4999 11.6804 28.8125 11.9409 29.073C12.2014 29.3161 12.5401 29.4376 12.9569 29.4376H13.7383C13.9815 29.4376 14.103 29.5592 14.103 29.8023V32.6938C14.103 32.798 14.0596 32.8848 13.9728 32.9543C13.9033 33.0237 13.8252 33.0585 13.7383 33.0585H12.9569ZM8.4764 27.484V23.8631L5.94964 24.4623C5.49812 24.5665 5.15948 24.7748 4.93372 25.0874C4.70796 25.3827 4.59508 25.7647 4.59508 26.2336V27.484H8.4764ZM13.7491 33.0585C13.506 33.0585 13.3844 32.9369 13.3844 32.6938V29.8284C13.3844 29.7415 13.4278 29.6547 13.5147 29.5679C13.5841 29.4811 13.6623 29.4376 13.7491 29.4376H18.5943C19.4278 29.4376 20.1659 29.3334 20.8084 29.1251C21.451 28.9167 22.0154 28.5259 22.5016 27.9528L23.6478 26.6764C23.943 26.3291 24.1254 26.1381 24.1948 26.1034L18.7766 24.5144C18.7419 24.497 18.6811 24.4883 18.5943 24.4883C18.3511 24.4883 18.1861 24.6099 18.0993 24.853L17.1616 27.484L14.5045 26.7806L15.2079 24.332C15.451 23.4637 15.9112 22.7864 16.5885 22.3002C17.2831 21.7966 18.0472 21.5448 18.8808 21.5448C19.2281 21.5448 19.6102 21.6055 20.027 21.7271L30.4206 24.8269L29.5349 27.6924L28.2064 27.3016C27.8938 27.2148 27.6593 27.1714 27.5031 27.1714C27.3294 27.1714 27.1644 27.2148 27.0081 27.3016C26.8692 27.3884 26.6955 27.5361 26.4871 27.7444L23.5957 30.8443C22.901 31.591 22.0501 32.1468 21.0429 32.5114C20.053 32.8761 18.985 33.0585 17.8388 33.0585H13.7491ZM22.8663 36.1844H25.9922V39.3363H22.8663V36.1844ZM20.5479 40.3001H23.6999V43.4521H20.5479V40.3001ZM18.3598 36.1844H21.5118V39.3363H18.3598V36.1844ZM44.6444 29.4376C44.8875 29.4376 45.0091 29.5592 45.0091 29.8023V32.6938C45.0091 32.9369 44.8875 33.0585 44.6444 33.0585H42.3781L42.4042 29.4376H44.6444ZM39.7472 32.798C39.3825 32.9716 38.6618 33.0585 37.5851 33.0585H36.5692C35.8051 33.0585 35.1017 32.8674 34.4592 32.4854C33.8166 32.086 33.3043 31.565 32.9223 30.9224C32.5576 30.2799 32.3753 29.5853 32.3753 28.8385C32.3753 28.5954 32.4013 28.3436 32.4534 28.0831L32.8702 25.7387C33.0439 24.7662 33.5214 23.9586 34.3029 23.3161C35.1017 22.6562 35.9961 22.3262 36.986 22.3262H38.4708C39.2696 22.3262 39.999 22.5259 40.6589 22.9254C41.3362 23.3074 41.8658 23.8371 42.2479 24.5144C42.6473 25.1916 42.847 25.921 42.847 26.7025V32.3551C42.847 33.7618 42.4476 35.0295 41.6487 36.1583C40.8499 37.3045 39.7906 38.1033 38.4708 38.5548L34.7457 39.8052L33.834 36.9137L37.5851 35.6373C38.2624 35.4116 38.792 35.0556 39.1741 34.5693C39.5561 34.0831 39.7472 33.5881 39.7472 33.0845V32.798ZM39.7472 26.7025C39.7472 26.4594 39.6603 26.251 39.4867 26.0773C39.3304 25.9036 39.1307 25.8168 38.8875 25.8168H36.6734C36.2392 25.8168 35.97 26.0513 35.8658 26.5201L35.4751 28.6301C35.4404 28.8211 35.4838 29.0035 35.6053 29.1772C35.7443 29.3508 35.9266 29.4376 36.1524 29.4376H39.7472V26.7025ZM45.7511 23.3161L53.3574 14.4073L55.5455 16.4391L50.5962 22.3002H60.4428C61.2416 22.3002 61.9797 22.4999 62.657 22.8993C63.3342 23.2814 63.8726 23.811 64.272 24.4883C64.6714 25.1656 64.8711 25.9036 64.8711 26.7025V28.6301C64.8711 29.4463 64.6627 30.1931 64.246 30.8703C63.8292 31.5476 63.2735 32.086 62.5788 32.4854C61.8842 32.8674 61.1374 33.0585 60.3386 33.0585H44.657C44.5702 33.0585 44.492 33.0237 44.4226 32.9543C44.3357 32.8848 44.2923 32.798 44.2923 32.6938V29.8023C44.2923 29.5592 44.4139 29.4376 44.657 29.4376H60.8856C61.1287 29.4376 61.3371 29.3595 61.5108 29.2032C61.6845 29.0295 61.7713 28.8038 61.7713 28.5259V26.6243C61.7713 26.3812 61.6671 26.1641 61.4587 25.9731C61.2677 25.7647 61.0419 25.6605 60.7814 25.6605H47.7569L45.7511 23.3161Z" fill="#1E1F20"/>
<defs>
<linearGradient id="paint0_linear_468_143" x1="92.7202" y1="44.5893" x2="45.2612" y2="32.0328" gradientUnits="userSpaceOnUse">
<stop stop-color="#F431DD"/>
<stop offset="1" stop-color="#0614F2"/>
</linearGradient>
<clipPath id="clip0_468_143">
<rect width="32.5614" height="32.5614" fill="white" transform="matrix(-1 0 0 1 87.7942 0.403473)"/>
</clipPath>
</defs>
</svg>
