<svg width="20" height="20" viewBox="0 0 20 20" fill="none" xmlns="http://www.w3.org/2000/svg">
<g id="Interface / Tag">
<g id="Vector">
<path d="M3.95643 6.37085L3.68041 9.40706C3.63953 9.85672 3.61892 10.0834 3.65634 10.2987C3.68977 10.491 3.75655 10.676 3.85397 10.8451C3.96342 11.0352 4.12519 11.1969 4.4469 11.5186L8.75981 15.8315C9.41568 16.4874 9.74379 16.8155 10.1231 16.9388C10.4579 17.0475 10.819 17.0478 11.1538 16.939C11.5343 16.8154 11.865 16.4851 12.525 15.8251L15.8249 12.5252C16.4849 11.8652 16.8144 11.5353 16.938 11.1548C17.0468 10.82 17.0461 10.4593 16.9374 10.1246C16.8137 9.74401 16.4847 9.41421 15.8247 8.75418L11.5224 4.45191C11.1978 4.12727 11.0354 3.96493 10.8445 3.85498C10.6754 3.75757 10.4904 3.6905 10.2981 3.65707C10.081 3.61933 9.85231 3.64008 9.39509 3.68164L6.37025 3.95663C5.58294 4.0282 5.18905 4.06415 4.88099 4.23545C4.60938 4.38649 4.38548 4.6104 4.23444 4.882C4.06399 5.18852 4.02843 5.57963 3.95758 6.3591L3.95643 6.37085Z" stroke="#707476" stroke-width="1.4" stroke-linecap="round" stroke-linejoin="round"/>
<path d="M8.09366 8.09414C8.4191 7.7687 8.4191 7.24107 8.09366 6.91563C7.76822 6.59019 7.24021 6.59019 6.91477 6.91563C6.58934 7.24107 6.58902 7.76858 6.91446 8.09401C7.2399 8.41945 7.76822 8.41958 8.09366 8.09414Z" stroke="#707476" stroke-width="1.4" stroke-linecap="round" stroke-linejoin="round"/>
</g>
</g>
</svg>
