<svg width="40" height="40" viewBox="0 0 40 40" fill="none" xmlns="http://www.w3.org/2000/svg">
<path fill-rule="evenodd" clip-rule="evenodd" d="M18.5388 33.8754C15.4076 31.3115 8.3335 24.6245 8.3335 16.5381C8.3335 13.4779 9.56266 10.5436 11.7506 8.37972C13.9385 6.21584 16.9061 5 20.0003 5C23.0945 5 26.0618 6.21566 28.2497 8.37954C30.4376 10.5434 31.6667 13.4786 31.6667 16.5388C31.6667 24.6252 24.5929 31.3118 21.4618 33.8756C21.0119 34.2439 20.7868 34.4278 20.4518 34.5221C20.1915 34.5954 19.8083 34.5954 19.548 34.5221C19.2137 34.4279 18.9869 34.2423 18.5388 33.8754ZM16.6668 15C16.6668 16.841 18.1592 18.3333 20.0002 18.3333C21.8411 18.3333 23.3335 16.841 23.3335 15C23.3335 13.1591 21.8411 11.6667 20.0002 11.6667C18.1592 11.6667 16.6668 13.1591 16.6668 15Z" fill="#E2D3FB" stroke="#6D21E9" stroke-width="3.33333" stroke-linecap="round" stroke-linejoin="round"/>
</svg>
