<svg width="17" height="16" viewBox="0 0 17 16" fill="none" xmlns="http://www.w3.org/2000/svg">
<path d="M9.93278 6.66667V11.3333M7.26611 6.66667V11.3333M4.59945 4V11.8667C4.59945 12.6134 4.59945 12.9865 4.74477 13.2717C4.8726 13.5226 5.07643 13.727 5.32731 13.8548C5.61225 14 5.98544 14 6.73072 14H10.4682C11.2135 14 11.5861 14 11.871 13.8548C12.1219 13.727 12.3264 13.5226 12.4543 13.2717C12.5994 12.9868 12.5994 12.614 12.5994 11.8687V4M4.59945 4H5.93278M4.59945 4H3.26611M5.93278 4H11.2661M5.93278 4C5.93278 3.37874 5.93278 3.06827 6.03427 2.82324C6.1696 2.49654 6.42899 2.23682 6.7557 2.10149C7.00072 2 7.31152 2 7.93278 2H9.26611C9.88737 2 10.198 2 10.443 2.10149C10.7697 2.23682 11.0292 2.49654 11.1646 2.82324C11.266 3.06827 11.2661 3.37875 11.2661 4M11.2661 4H12.5994M12.5994 4H13.9328" stroke="white" stroke-width="1.33333" stroke-linecap="round" stroke-linejoin="round"/>
</svg>
